<svg id="chat-solution-icon" xmlns="http://www.w3.org/2000/svg" width="83" height="83" viewBox="0 0 83 83">
  <g id="Group_3310" data-name="Group 3310" transform="translate(0 38.972)">
    <g id="Group_3309" data-name="Group 3309">
      <path id="Path_1488" data-name="Path 1488" d="M27.6,244.075a1.52,1.52,0,0,0-.335-.055,9.705,9.705,0,0,0,2.688-6.709v-7.99a1.533,1.533,0,0,0-.017-.214c.01-.144.017-.289.017-.436v-5.055a1.519,1.519,0,0,0-1.519-1.519H18.246a7.788,7.788,0,0,0-7.779,7.779v7.435a9.7,9.7,0,0,0,2.688,6.709,1.517,1.517,0,0,0-.335.055A14.12,14.12,0,0,0,0,258.118v6.489a1.519,1.519,0,0,0,1.519,1.519H38.9a1.519,1.519,0,0,0,1.519-1.519v-6.489A14.12,14.12,0,0,0,27.6,244.075ZM13.5,231.8v-1.926a4.747,4.747,0,0,1,4.742-4.742h8.668v3.536a3.232,3.232,0,0,1-3.229,3.229H13.5Zm0,3.135H23.685a6.227,6.227,0,0,0,3.229-.9v3.273a6.7,6.7,0,0,1-13.41,0Zm10.01,12.117-3.305,3.306L16.9,247.054ZM37.38,263.088H3.037V260.05h6.3a1.519,1.519,0,0,0,0-3.037H3.093a11.083,11.083,0,0,1,9.607-9.867l6.435,6.435a1.519,1.519,0,0,0,2.148,0l6.435-6.435a11.078,11.078,0,0,1,9.662,10.972Z" transform="translate(0 -222.097)" fill="#0073bd"/>
    </g>
  </g>
  <g id="Group_3312" data-name="Group 3312" transform="translate(42.583)">
    <g id="Group_3311" data-name="Group 3311">
      <path id="Path_1489" data-name="Path 1489" d="M273.471,21.979a1.52,1.52,0,0,0-.336-.055,9.705,9.705,0,0,0,2.688-6.709V7.225a1.536,1.536,0,0,0-.017-.214c.01-.144.017-.289.017-.436V1.519A1.519,1.519,0,0,0,274.3,0H264.118a7.788,7.788,0,0,0-7.779,7.779v7.435a9.705,9.705,0,0,0,2.688,6.709,1.521,1.521,0,0,0-.336.055,14.12,14.12,0,0,0-12.819,14.042v6.488a1.519,1.519,0,0,0,1.519,1.519h12.22a1.519,1.519,0,0,0,0-3.037h-10.7v-4.97a11.078,11.078,0,0,1,9.662-10.972l6.435,6.435a1.519,1.519,0,0,0,2.148,0l6.435-6.435a11.078,11.078,0,0,1,9.662,10.972v4.97H272.064a1.519,1.519,0,1,0,0,3.037h12.707a1.519,1.519,0,0,0,1.519-1.519V36.021A14.12,14.12,0,0,0,273.471,21.979Zm-7.39,6.284-3.306-3.305h6.611Zm6.7-13.048a6.7,6.7,0,0,1-13.41,0V12.84h10.181a6.228,6.228,0,0,0,3.229-.9Zm0-8.641A3.232,3.232,0,0,1,269.557,9.8H259.376V7.779a4.747,4.747,0,0,1,4.742-4.742h8.668Z" transform="translate(-245.872)" fill="#0073bd"/>
    </g>
  </g>
  <g id="Group_3314" data-name="Group 3314" transform="translate(59.962 43.866)">
    <g id="Group_3313" data-name="Group 3313">
      <path id="Path_1490" data-name="Path 1490" d="M371.532,270.345a1.518,1.518,0,1,0,.445,1.074A1.53,1.53,0,0,0,371.532,270.345Z" transform="translate(-368.94 -269.9)" fill="#0073bd"/>
    </g>
  </g>
  <g id="Group_3316" data-name="Group 3316">
    <g id="Group_3315" data-name="Group 3315">
      <path id="Path_1491" data-name="Path 1491" d="M40.611,21.251,34.26,14.9V7.594A7.6,7.6,0,0,0,26.666,0H7.594A7.6,7.6,0,0,0,0,7.594V20.958a7.6,7.6,0,0,0,7.594,7.594H26.666a7.551,7.551,0,0,0,7.026-4.708h5.845a1.519,1.519,0,0,0,1.074-2.593Zm-8.027-.445a1.519,1.519,0,0,0-1.48,1.178,4.531,4.531,0,0,1-4.438,3.53H7.594a4.561,4.561,0,0,1-4.556-4.556V7.594A4.561,4.561,0,0,1,7.594,3.037H26.666a4.561,4.561,0,0,1,4.556,4.556v7.935a1.519,1.519,0,0,0,.445,1.074l4.2,4.2Z" fill="#0073bd"/>
    </g>
  </g>
  <g id="Group_3318" data-name="Group 3318" transform="translate(41.944 54.448)">
    <g id="Group_3317" data-name="Group 3317">
      <path id="Path_1492" data-name="Path 1492" d="M275.129,324H256.056a7.551,7.551,0,0,0-7.027,4.708h-5.845a1.519,1.519,0,0,0-1.074,2.593l6.351,6.351v7.306a7.6,7.6,0,0,0,7.594,7.594h19.073a7.6,7.6,0,0,0,7.594-7.594V331.594A7.6,7.6,0,0,0,275.129,324Zm4.556,20.958a4.561,4.561,0,0,1-4.556,4.556H256.056a4.561,4.561,0,0,1-4.556-4.556v-7.935a1.519,1.519,0,0,0-.445-1.074l-4.2-4.2h3.286a1.519,1.519,0,0,0,1.48-1.178,4.531,4.531,0,0,1,4.438-3.53h19.072a4.561,4.561,0,0,1,4.556,4.556Z" transform="translate(-241.666 -324)" fill="#0073bd"/>
    </g>
  </g>
  <g id="Group_3320" data-name="Group 3320" transform="translate(62.042 64.238)">
    <g id="Group_3319" data-name="Group 3319">
      <path id="Path_1493" data-name="Path 1493" d="M384.654,388.908a1.519,1.519,0,0,0-2.148,0l-4.037,4.037-1.877-1.877a1.519,1.519,0,1,0-2.148,2.148l2.951,2.951a1.519,1.519,0,0,0,2.148,0l5.111-5.111A1.519,1.519,0,0,0,384.654,388.908Z" transform="translate(-373.999 -388.463)" fill="#0073bd"/>
    </g>
  </g>
  <g id="Group_3322" data-name="Group 3322" transform="translate(14.569 5.168)">
    <g id="Group_3321" data-name="Group 3321">
      <path id="Path_1494" data-name="Path 1494" d="M99.512,38.927a5.278,5.278,0,0,0-4.883-4.883,5.222,5.222,0,0,0-3.962,1.4,5.285,5.285,0,0,0-1.673,3.85,1.519,1.519,0,0,0,3.038,0,2.228,2.228,0,1,1,2.718,2.174,2.551,2.551,0,0,0-2.009,2.5v.81a1.519,1.519,0,1,0,3.037,0v-.442A5.237,5.237,0,0,0,99.512,38.927Z" transform="translate(-88.994 -34.032)" fill="#0073bd"/>
    </g>
  </g>
  <g id="Group_3324" data-name="Group 3324" transform="translate(18.474 21.631)">
    <g id="Group_3323" data-name="Group 3323">
      <path id="Path_1495" data-name="Path 1495" d="M116.262,133.535a1.518,1.518,0,1,0,.445,1.074A1.53,1.53,0,0,0,116.262,133.535Z" transform="translate(-113.67 -133.09)" fill="#0073bd"/>
    </g>
  </g>
  <g id="Group_3326" data-name="Group 3326" transform="translate(14.871 73.888)">
    <g id="Group_3325" data-name="Group 3325">
      <path id="Path_1496" data-name="Path 1496" d="M94.092,452.445a1.518,1.518,0,1,0,.445,1.074A1.53,1.53,0,0,0,94.092,452.445Z" transform="translate(-91.5 -452)" fill="#0073bd"/>
    </g>
  </g>
</svg>
