<svg xmlns="http://www.w3.org/2000/svg" width="81.435" height="81.435" viewBox="0 0 81.435 81.435">
  <g id="saas" transform="translate(-2 -2)">
    <path id="Path_1497" data-name="Path 1497" d="M67.148,57.647a16.287,16.287,0,0,0,0-32.574,16.068,16.068,0,0,0-5.611,1,8.157,8.157,0,0,0-7.962-6.431h-.012a18.323,18.323,0,1,0-36.5,2.922,17.634,17.634,0,0,0,2.577,35.081H30.5v6.786H23.716v2.715H31.86a1.358,1.358,0,0,0,1.357-1.357V57.647h2.715v2.715h2.715V57.647H41.36V75.292H38.646v2.715h4.072a1.358,1.358,0,0,0,1.357-1.357v-19h2.715v5.429H49.5V57.647h2.715V71.22a1.358,1.358,0,0,0,1.357,1.357h6.786V69.863H54.933V57.647h2.715v8.144A1.358,1.358,0,0,0,59,67.148h8.144V64.434H60.362V57.647ZM4.715,40A14.936,14.936,0,0,1,18.721,25.122a1.358,1.358,0,0,0,1.247-1.629,15.609,15.609,0,1,1,30.892-3.171c0,.151-.011.3-.022.448l-.019.314a1.358,1.358,0,0,0,1.634,1.394A5.432,5.432,0,0,1,59,27.762c-.005.043-.026.221-.027.265A1.357,1.357,0,0,0,60.952,29.3a13.417,13.417,0,0,1,6.2-1.508,13.573,13.573,0,0,1,0,27.145h-47.5A14.947,14.947,0,0,1,4.715,40Z" fill="#0073bd"/>
    <path id="Path_1498" data-name="Path 1498" d="M30.346,7.66A11.487,11.487,0,0,0,26.5,7V9.715a8.777,8.777,0,0,1,2.94.5Z" transform="translate(8.753 1.786)" fill="#0073bd"/>
    <path id="Path_1499" data-name="Path 1499" d="M26.6,10.044l-.908-2.558A11.565,11.565,0,0,0,18,18.363h2.715A8.845,8.845,0,0,1,26.6,10.044Z" transform="translate(5.716 1.96)" fill="#0073bd"/>
    <path id="Path_1500" data-name="Path 1500" d="M43.9,28.955l-2.421-.994a12.288,12.288,0,0,0-.573-1.39l1.008-2.41a1.358,1.358,0,0,0-.179-1.355,15.064,15.064,0,0,0-2.678-2.678A1.358,1.358,0,0,0,37.7,19.95l-2.41,1.008a12.5,12.5,0,0,0-1.39-.573l-.994-2.421a1.361,1.361,0,0,0-1.084-.832,13.368,13.368,0,0,0-3.781,0,1.354,1.354,0,0,0-1.084.832l-.994,2.421a12.5,12.5,0,0,0-1.39.573l-2.41-1.008a1.362,1.362,0,0,0-1.355.179,15.056,15.056,0,0,0-2.678,2.677,1.357,1.357,0,0,0-.179,1.356l1.008,2.41a12.5,12.5,0,0,0-.573,1.39l-2.421.994a1.361,1.361,0,0,0-.832,1.084A14.588,14.588,0,0,0,15,31.93a14.814,14.814,0,0,0,.132,1.891,1.354,1.354,0,0,0,.832,1.084l2.421.994a12.5,12.5,0,0,0,.573,1.39L17.949,39.7a1.358,1.358,0,0,0,.179,1.355A15.056,15.056,0,0,0,20.8,43.732a1.358,1.358,0,0,0,1.356.179l2.41-1.008a12.5,12.5,0,0,0,1.39.573l.994,2.421a1.361,1.361,0,0,0,1.084.832,13.642,13.642,0,0,0,3.781,0A1.354,1.354,0,0,0,32.9,45.9l.994-2.421a12.288,12.288,0,0,0,1.39-.573l2.41,1.008a1.355,1.355,0,0,0,1.355-.179,15.019,15.019,0,0,0,2.678-2.678A1.355,1.355,0,0,0,41.91,39.7L40.9,37.289a12.5,12.5,0,0,0,.573-1.39l2.421-.994a1.361,1.361,0,0,0,.832-1.084,13.642,13.642,0,0,0,0-3.781,1.355,1.355,0,0,0-.831-1.084ZM42.115,32.7l-2.26.927a1.36,1.36,0,0,0-.791.886,9.425,9.425,0,0,1-.844,2.047,1.36,1.36,0,0,0-.068,1.186l.937,2.242a12.36,12.36,0,0,1-1.1,1.1l-2.242-.937a1.358,1.358,0,0,0-1.188.068,9.394,9.394,0,0,1-2.045.843,1.363,1.363,0,0,0-.886.791l-.927,2.26a10.116,10.116,0,0,1-1.545,0l-.927-2.26a1.36,1.36,0,0,0-.886-.791,9.425,9.425,0,0,1-2.047-.844,1.36,1.36,0,0,0-1.186-.068l-2.242.938a12.179,12.179,0,0,1-1.1-1.1l.937-2.242a1.351,1.351,0,0,0-.068-1.186,9.453,9.453,0,0,1-.844-2.047A1.363,1.363,0,0,0,20,33.63l-2.26-.927c-.018-.271-.027-.525-.027-.772s.01-.5.03-.772L20,30.231a1.36,1.36,0,0,0,.791-.886A9.425,9.425,0,0,1,21.64,27.3a1.36,1.36,0,0,0,.068-1.186L20.77,23.87a12.18,12.18,0,0,1,1.1-1.1l2.242.937a1.356,1.356,0,0,0,1.186-.068,9.453,9.453,0,0,1,2.047-.844A1.363,1.363,0,0,0,28.23,22l.927-2.26a10.116,10.116,0,0,1,1.545,0L31.629,22a1.36,1.36,0,0,0,.886.791,9.425,9.425,0,0,1,2.047.844,1.36,1.36,0,0,0,1.186.068l2.242-.937a12.18,12.18,0,0,1,1.1,1.1l-.937,2.242a1.358,1.358,0,0,0,.068,1.188,9.394,9.394,0,0,1,.843,2.045,1.363,1.363,0,0,0,.791.886l2.26.927c.02.271.03.525.03.772s-.009.5-.03.772Z" transform="translate(4.644 5.358)" fill="#0073bd"/>
    <path id="Path_1501" data-name="Path 1501" d="M52.2,39.629l1.321.763,1.357-2.351-1.322-.763a6.857,6.857,0,0,0,.24-.776h1.494V33.788H53.793a6.347,6.347,0,0,0-.24-.776l1.322-.763L53.517,29.9l-1.321.763a6.814,6.814,0,0,0-.569-.569l.763-1.321L50.04,27.414l-.763,1.322a6.856,6.856,0,0,0-.776-.24V27H45.786v1.494a6.346,6.346,0,0,0-.776.24l-.763-1.322L41.9,28.77l.763,1.321a6.815,6.815,0,0,0-.569.569L40.77,29.9l-1.357,2.351,1.322.763a6.856,6.856,0,0,0-.24.776H39V36.5h1.494a6.346,6.346,0,0,0,.24.776l-1.322.763,1.357,2.351,1.321-.763a6.815,6.815,0,0,0,.569.569L41.9,41.517l2.351,1.357.763-1.322a6.856,6.856,0,0,0,.776.24v1.494H48.5V41.793a6.344,6.344,0,0,0,.776-.24l.763,1.322,2.351-1.357L51.628,40.2A6.8,6.8,0,0,0,52.2,39.629Zm-5.053-.414a4.072,4.072,0,1,1,4.072-4.072A4.077,4.077,0,0,1,47.144,39.215Z" transform="translate(13.218 8.931)" fill="#0073bd"/>
    <path id="Path_1502" data-name="Path 1502" d="M27.786,23a6.786,6.786,0,1,0,6.786,6.786A6.794,6.794,0,0,0,27.786,23Zm0,10.858a4.072,4.072,0,1,1,4.072-4.072A4.077,4.077,0,0,1,27.786,33.858Z" transform="translate(6.788 7.502)" fill="#0073bd"/>
    <path id="Path_1503" data-name="Path 1503" d="M13,48h4.072v2.715H13Z" transform="translate(3.93 16.434)" fill="#0073bd"/>
    <path id="Path_1504" data-name="Path 1504" d="M31.144,55.144V47H28.429v6.786H23V56.5h6.786A1.358,1.358,0,0,0,31.144,55.144Z" transform="translate(7.502 16.076)" fill="#0073bd"/>
    <path id="Path_1505" data-name="Path 1505" d="M18,52h4.072v2.715H18Z" transform="translate(5.716 17.863)" fill="#0073bd"/>
    <path id="Path_1506" data-name="Path 1506" d="M13,52h4.072v2.715H13Z" transform="translate(3.93 17.863)" fill="#0073bd"/>
    <path id="Path_1507" data-name="Path 1507" d="M19,56H29.858v2.715H19Z" transform="translate(6.073 19.292)" fill="#0073bd"/>
    <path id="Path_1508" data-name="Path 1508" d="M15,60h2.715v2.714H15Z" transform="translate(4.644 20.721)" fill="#0073bd"/>
    <path id="Path_1509" data-name="Path 1509" d="M19,60h2.715v2.714H19Z" transform="translate(6.073 20.721)" fill="#0073bd"/>
    <path id="Path_1510" data-name="Path 1510" d="M23,60h2.715v2.714H23Z" transform="translate(7.502 20.721)" fill="#0073bd"/>
    <path id="Path_1511" data-name="Path 1511" d="M37.858,61.429H27v2.715H39.215a1.358,1.358,0,0,0,1.357-1.357V56H37.858Z" transform="translate(8.931 19.292)" fill="#0073bd"/>
    <path id="Path_1512" data-name="Path 1512" d="M35,49h2.715v6.786H35Z" transform="translate(11.789 16.791)" fill="#0073bd"/>
    <path id="Path_1513" data-name="Path 1513" d="M9.894,51.429h4.321V48.715H9.894a4.072,4.072,0,1,0,0,2.715ZM4.715,50.072a1.357,1.357,0,1,1,1.357,1.357A1.359,1.359,0,0,1,4.715,50.072Z" transform="translate(0 15.719)" fill="#0073bd"/>
    <path id="Path_1514" data-name="Path 1514" d="M47,52h4.072v2.715H47Z" transform="translate(16.076 17.863)" fill="#0073bd"/>
    <path id="Path_1515" data-name="Path 1515" d="M52,52h4.072v2.715H52Z" transform="translate(17.863 17.863)" fill="#0073bd"/>
    <path id="Path_1516" data-name="Path 1516" d="M61.5,46a4.066,4.066,0,0,0-3.822,2.715H52v2.715h5.679A4.065,4.065,0,1,0,61.5,46Zm0,5.429a1.357,1.357,0,1,1,1.357-1.357A1.359,1.359,0,0,1,61.5,51.429Z" transform="translate(17.863 15.719)" fill="#0073bd"/>
    <path id="Path_1517" data-name="Path 1517" d="M9.072,54a4.072,4.072,0,1,0,3.822,5.429h8.393V56.715H12.894A4.066,4.066,0,0,0,9.072,54Zm0,5.429a1.357,1.357,0,1,1,1.357-1.357A1.359,1.359,0,0,1,9.072,59.429Z" transform="translate(1.072 18.577)" fill="#0073bd"/>
  </g>
</svg>
