<svg xmlns="http://www.w3.org/2000/svg" width="85.595" height="85.595" viewBox="0 0 85.595 85.595">
  <g id="Expand" transform="translate(-6 -6)">
    <rect id="Rectangle_314" data-name="Rectangle 314" width="4" height="3" transform="translate(46.797 81.797)" fill="#0073bd"/>
    <path id="Path_1478" data-name="Path 1478" d="M22.646,26.876H29.23a1.646,1.646,0,0,0,1.646-1.646V18.646A1.646,1.646,0,0,0,29.23,17H22.646A1.646,1.646,0,0,0,21,18.646V25.23A1.646,1.646,0,0,0,22.646,26.876Zm1.646-6.584h3.292v3.292H24.292Z" transform="translate(9.691 7.107)" fill="#0073bd"/>
    <path id="Path_1479" data-name="Path 1479" d="M30.646,26.876H37.23a1.646,1.646,0,0,0,1.646-1.646V18.646A1.646,1.646,0,0,0,37.23,17H30.646A1.646,1.646,0,0,0,29,18.646V25.23A1.646,1.646,0,0,0,30.646,26.876Zm1.646-6.584h3.292v3.292H32.292Z" transform="translate(14.859 7.107)" fill="#0073bd"/>
    <path id="Path_1480" data-name="Path 1480" d="M30.876,33.23V26.646A1.646,1.646,0,0,0,29.23,25H22.646A1.646,1.646,0,0,0,21,26.646V33.23a1.646,1.646,0,0,0,1.646,1.646H29.23A1.646,1.646,0,0,0,30.876,33.23Zm-3.292-1.646H24.292V28.292h3.292Z" transform="translate(9.691 12.275)" fill="#0073bd"/>
    <path id="Path_1481" data-name="Path 1481" d="M30.646,34.876H37.23a1.646,1.646,0,0,0,1.646-1.646V26.646A1.646,1.646,0,0,0,37.23,25H30.646A1.646,1.646,0,0,0,29,26.646V33.23A1.646,1.646,0,0,0,30.646,34.876Zm1.646-6.584h3.292v3.292H32.292Z" transform="translate(14.859 12.275)" fill="#0073bd"/>
    <path id="Path_1482" data-name="Path 1482" d="M30.646,42.876H37.23a1.646,1.646,0,0,0,1.646-1.646V34.646A1.646,1.646,0,0,0,37.23,33H30.646A1.646,1.646,0,0,0,29,34.646V41.23A1.646,1.646,0,0,0,30.646,42.876Zm1.646-6.584h3.292v3.292H32.292Z" transform="translate(14.859 17.444)" fill="#0073bd"/>
    <path id="Path_1483" data-name="Path 1483" d="M38.646,42.876H45.23a1.646,1.646,0,0,0,1.646-1.646V34.646A1.646,1.646,0,0,0,45.23,33H38.646A1.646,1.646,0,0,0,37,34.646V41.23A1.646,1.646,0,0,0,38.646,42.876Zm1.646-6.584h3.292v3.292H40.292Z" transform="translate(20.028 17.444)" fill="#0073bd"/>
    <path id="Path_1484" data-name="Path 1484" d="M30.646,50.876H37.23a1.646,1.646,0,0,0,1.646-1.646V42.646A1.646,1.646,0,0,0,37.23,41H30.646A1.646,1.646,0,0,0,29,42.646V49.23A1.646,1.646,0,0,0,30.646,50.876Zm1.646-6.584h3.292v3.292H32.292Z" transform="translate(14.859 22.612)" fill="#0073bd"/>
    <path id="Path_1485" data-name="Path 1485" d="M38.646,50.876H45.23a1.646,1.646,0,0,0,1.646-1.646V42.646A1.646,1.646,0,0,0,45.23,41H38.646A1.646,1.646,0,0,0,37,42.646V49.23A1.646,1.646,0,0,0,38.646,50.876Zm1.646-6.584h3.292v3.292H40.292Z" transform="translate(20.028 22.612)" fill="#0073bd"/>
    <rect id="Rectangle_315" data-name="Rectangle 315" width="10" height="3" transform="translate(43.797 12.797)" fill="#0073bd"/>
    <path id="Path_1486" data-name="Path 1486" d="M44.78,33.216a1.646,1.646,0,0,0,1.6.072L59.55,26.7a1.646,1.646,0,0,0,0-2.946L46.382,17.173A1.646,1.646,0,0,0,44,18.646V31.815A1.646,1.646,0,0,0,44.78,33.216ZM47.292,21.31l7.842,3.921-7.842,3.921Z" transform="translate(24.55 7.106)" fill="#0073bd"/>
    <path id="Path_1487" data-name="Path 1487" d="M6,52.09V78.426a1.646,1.646,0,0,0,1.646,1.646H24.107v4.938a6.584,6.584,0,0,0,6.584,6.584H66.9a6.584,6.584,0,0,0,6.584-6.584V47.151H89.949a1.646,1.646,0,0,0,1.646-1.646V19.168a1.646,1.646,0,0,0-1.646-1.646H73.488V12.584A6.584,6.584,0,0,0,66.9,6H30.691a6.584,6.584,0,0,0-6.584,6.584V50.444H7.646A1.646,1.646,0,0,0,6,52.09Zm82.3-8.23H63.612V32.337a1.646,1.646,0,0,0-.482-1.164L61,29.045l2.128-2.128a1.646,1.646,0,0,0,.482-1.164V20.814H88.3ZM27.4,12.584a3.292,3.292,0,0,1,3.292-3.292H66.9A3.292,3.292,0,0,1,70.2,12.584v4.938h-8.23a1.646,1.646,0,0,0-1.646,1.646v5.9l-2.81,2.81a1.646,1.646,0,0,0,0,2.328l2.81,2.81V45.505a1.646,1.646,0,0,0,1.646,1.646H70.2V85.011A3.292,3.292,0,0,1,66.9,88.3H30.691A3.292,3.292,0,0,1,27.4,85.011V80.073h8.23a1.646,1.646,0,0,0,1.646-1.646v-5.9l2.81-2.81a1.646,1.646,0,0,0,0-2.328l-2.81-2.81V52.09a1.646,1.646,0,0,0-1.646-1.646H27.4ZM9.292,53.736H33.983V65.258a1.646,1.646,0,0,0,.482,1.164l2.129,2.129-2.128,2.128a1.646,1.646,0,0,0-.482,1.164V76.78H9.292Z" fill="#0073bd"/>
    <rect id="Rectangle_316" data-name="Rectangle 316" width="3" height="4" transform="translate(12.797 56.797)" fill="#0073bd"/>
    <rect id="Rectangle_317" data-name="Rectangle 317" width="12" height="4" transform="translate(18.797 56.797)" fill="#0073bd"/>
    <rect id="Rectangle_318" data-name="Rectangle 318" width="18" height="3" transform="translate(12.797 63.797)" fill="#0073bd"/>
    <rect id="Rectangle_319" data-name="Rectangle 319" width="18" height="3" transform="translate(12.797 69.797)" fill="#0073bd"/>
    <rect id="Rectangle_320" data-name="Rectangle 320" width="3" height="27" transform="translate(17.797 18.797)" fill="#0073bd"/>
    <rect id="Rectangle_321" data-name="Rectangle 321" width="3" height="24" transform="translate(76.797 51.797)" fill="#0073bd"/>
    <rect id="Rectangle_322" data-name="Rectangle 322" width="3" height="3" transform="translate(76.797 78.797)" fill="#0073bd"/>
  </g>
</svg>
